<svg xmlns="http://www.w3.org/2000/svg" width="118" height="118"><path d="M46.919 13.833c-13.027 3.401-23.97 12.373-29.883 24.502-13.813 28.333 3.461 61.599 34.714 66.853 30.842 5.185 58.623-22.596 53.438-53.438-4.669-27.774-31.139-44.999-58.269-37.917M31.241 25.995c-6.716 4.094-9.014 12.021-5.489 18.934 3.697 7.251 10.891 9.65 18.648 6.218 3.846-1.701 5.046-2.901 6.747-6.747 3.432-7.757 1.033-14.951-6.218-18.648-4.515-2.303-9.663-2.211-13.688.243m41.83-.243c-10.794 5.504-10.421 20.552.631 25.441 7.651 3.384 14.87.946 18.546-6.264 6.35-12.451-6.726-25.527-19.177-19.177m-36.383 1.894c-.379.378-.688 2.637-.688 5.021V37h-4.5c-3.333 0-4.5.389-4.5 1.5 0 1.108 1.161 1.5 4.445 1.5h4.445l.305 4.75c.22 3.42.725 4.75 1.805 4.75s1.585-1.33 1.805-4.75L40.11 40h4.445C47.839 40 49 39.608 49 38.5S47.839 37 44.555 37H40.11l-.305-4.672c-.286-4.379-1.539-6.261-3.117-4.682M79 32.607c0 2.091-.347 2.464-1.75 1.887-3.669-1.511-5.25-1.688-5.25-.589 0 .626 1.125 1.65 2.5 2.277 1.375.626 2.5 1.526 2.5 2 0 .473-1.125 1.373-2.5 2-1.375.626-2.5 1.49-2.5 1.919 0 1.596 1.764 1.791 3.603.399 2.703-2.046 3.397-1.842 3.397 1 0 1.556.567 2.5 1.5 2.5s1.5-.944 1.5-2.5c0-2.852.692-3.047 3.441-.968 1.517 1.147 2.109 1.196 2.71.223.504-.815-.29-1.793-2.3-2.832l-3.07-1.588 3.221-2.039c3.397-2.151 2.589-4.218-.916-2.342C82.302 35.444 82 35.301 82 32.5c0-1.556-.567-2.5-1.5-2.5-.95 0-1.5.956-1.5 2.607M32.02 66.752c-10.22 5.134-10.655 19.232-.779 25.253 5.914 3.606 14.75 1.729 18.964-4.028 4.98-6.804 2.216-17.523-5.412-20.985-5.336-2.422-8.32-2.478-12.773-.24m40.741.254c-10.13 5.501-9.952 20.01.31 25.242 12.451 6.35 25.527-6.726 19.177-19.177-3.697-7.251-12.345-9.943-19.487-6.065m7.287 11.396C73.957 86.569 73.231 88 75.177 88c.739 0 3.814-3.217 6.833-7.148 7.257-9.45 7.48-9.862 5.29-9.807-1.042.027-4.095 3.124-7.252 7.357M29 79c0 1.971.463 2.061 9.25 1.788 7.428-.231 9.25-.583 9.25-1.788s-1.822-1.557-9.25-1.788C29.463 76.939 29 77.029 29 79" fill="undefined" fill-rule="evenodd"/></svg>